<?xml version="1.0" encoding="UTF-8"?>
<svg version="1.1" viewBox="0 0 453.12 643.96" xmlns="http://www.w3.org/2000/svg">
 <rect x="200.16" y="406.7" width="0" height="2" fill="#7f0000"/>
 <g transform="translate(-10.993 -23.05)" fill="#fff">
  <rect x="228.15" y="441.75" width="1" height="2"/>
  <rect x="62.154" y="398.9" width="23" height="56"/>
  <rect x="76.154" y="423.9" width="18" height="15"/>
  <rect x="81.154" y="433.9" width="1" height="1"/>
  <rect x="68.154" y="425.9" width="1" height="0"/>
  <rect x="203.15" y="213.9" width="0" height="2"/>
  <rect x="186.15" y="228.9" width="1" height="0"/>
  <rect x="168.15" y="235.9" width="0" height="1"/>
  <rect x="233.04" y="461.63" width="1" height="0"/>
 </g>
 <path d="m253.78 191.5c-50.626 71.845-119.77 95.135-156.82 188.46-37.057 93.328 18.033 163.41 94.744 212.1l104.26 49.339 3.7974 0.0325-156.78 2.5306-52.218-63.352c-151.27-237.3 86.524-331.82 163.02-389.11v2e-5z"/>
 <path d="m368.26 98.772c-16.297 4.1588-37.736 4.6275-45.427 14.964 16.533 1.5746 27.625 5.0391 37.163 9.044-15.702 0.60612-30.092 0.0862-43.136 9.0024 8.4272 7.8523 12.202 14.884 15.077 21.758-7.598-4.5448-15.172-9.1031-25.485-11.967-4.6737 10.625-23.167 16.5-36.227 24.337 4.9512-23.772 16.07-32.434 27.696-56.842 41.957-62.285 69.752-49.826 100.43-52.597-12.935 11.474-41.729 13.977-54.525 31.202 13.468 2.1771 24.386 5.0839 24.432 11.1zm-43.02 319.59c18.348-26.613 43.731-50.336 30.37-89.586-4.4944-15.06-8.61-28.706-34.512-53.971-22.63-25.798-43.68-43.245-66.104-61.203 4.8765 13.501 8.6893 28.665 11.564 41.354 2.4461 10.798-3.5079 21.412-8.9771 31.9l13.337-7.0593-8.4507 60.236c12.796-7.3848 21.726-20.988 29.4-36.612 11.431 0.87746 2.4072 32.299 0.58176 52.971 11.372-3.3803 15.799-11.455 23.239-17.492 3.7708 7.3151-8.1381 31.125-8.7097 49.395 4.9102 0.2085 18.166-18.41 21.17-13.415 3.0599 5.0884-4.1668 33.876-2.9072 43.484zm127.77-195.31c2.7034-29.714-43.431-71.736-140.3-46.364-15.52 0.53634-27.629 5.5964-50.93 14.306 16.199 1.256 31.418 1.017 37.978 1.2588 9.263 0.34128 3.9242 5.6736 13.369 15.268 3.1063-20.043 25.811 12.273 39.067 19.345 0.84533-7.5619 0.37903-19.489 5.4051-20.862 5.1794-1.4158 16.045 8.0063 30.154 19.659 3.4301-4.6841 5.6298-10.929 3.692-22.424 37.929 18.564 42.861 11.609 61.571 19.815zm-206.43-60.21c-2.51-32.73 57.12-136.55-44.46-162.84 9.6 15.398 6.95 34.231 25.45 52.649-8.7638-0.42863-16.601-2.7857-26.524-0.80168 5.0974 7.6019 9.4464 14.806 22.581 26.679-4.2139 0.59592-9.8547 0.55885-27.665-4.8781 5.748 8.4675 8.1845 16.942 21.567 25.393 6.8698 5.0488 9.2099 9.7094-8.1275 12.683 9.243 5.5193 23.729 7.793 26.39 17.386-0.90054 12.622 5.9925 22.859 10.795 33.735zm-6.8858 26.743c-0.22041-5.2396 0.35803-15.286-4.671-23.295-29.139-46.404-89.489-117.42-185.37-64.744 27.002 6.9463 57.123 12.809 77.667 21.999l-21.832 13.035c21.311 1.3154 48.629 1.2523 54.743 6.0544-12.133 9.7919-27.362 15.654-42.812 21.238 27.136 6.7253 49.864 7.8576 66.198 0.87755-1.4196 4.1714-5.0257 8.3475-10.581 12.528 10.531-0.81941 22.075-7.3828 31.523-2.0534 3.8247 10.725 22.865 9.9971 35.14 14.362h1e-5zm-11.445 13.927c-9.686-0.90892-16.845-0.35093-29.86-7.2223-158.1-39.9-178.75 9.35-198.38 63.27 30.732-19.74 56.476-32.59 77.159-38.45l-5.2196 33.332c17.553-14.955 35.438-30.279 43.098-34.286 1.7899-1.1974 7.5998 0.0631 7.6114 4.0823-8.504 16.304-11.089 28.374-15.219 41.55 18.048-12.901 40.99-25.942 46.229-39.605 4.6912-2.1443 7.3229 3.1153 6.1624 14.788 7.3131-5.3255 10.652-13.337 15.041-20.64 18.56 3.552 36.332-2.3554 53.391-16.813z"/>
 <rect x="237.51" y="96.92" width="1" height="0" fill="#ff7f00" stroke-width="null"/>
</svg>
